<mxfile host="Electron" modified="2023-04-23T12:52:29.018Z" agent="Mozilla/5.0 (Windows NT 10.0; Win64; x64) AppleWebKit/537.36 (KHTML, like Gecko) draw.io/21.1.2 Chrome/106.0.5249.199 Electron/21.4.3 Safari/537.36" etag="sEKaXl_w1DBAzyzYyqGi" version="21.1.2" type="device">
  <diagram id="R2lEEEUBdFMjLlhIrx00" name="Page-1">
    <mxGraphModel dx="1918" dy="1151" grid="1" gridSize="10" guides="1" tooltips="1" connect="1" arrows="1" fold="1" page="0" pageScale="1" pageWidth="850" pageHeight="1100" math="0" shadow="0" extFonts="Permanent Marker^https://fonts.googleapis.com/css?family=Permanent+Marker">
      <root>
        <mxCell id="0" />
        <mxCell id="1" parent="0" />
        <mxCell id="PTO_yJPM0yT8PVMOKiED-144" value="" style="rounded=0;whiteSpace=wrap;html=1;fillColor=none;" parent="1" vertex="1">
          <mxGeometry x="920" y="-115" width="187.5" height="90" as="geometry" />
        </mxCell>
        <mxCell id="PTO_yJPM0yT8PVMOKiED-2" value="authors" style="shape=table;startSize=30;container=1;collapsible=1;childLayout=tableLayout;fixedRows=1;rowLines=0;fontStyle=1;align=center;resizeLast=1;html=1;" parent="1" vertex="1">
          <mxGeometry x="420" y="-115" width="180" height="190" as="geometry" />
        </mxCell>
        <mxCell id="PTO_yJPM0yT8PVMOKiED-3" value="" style="shape=tableRow;horizontal=0;startSize=0;swimlaneHead=0;swimlaneBody=0;fillColor=none;collapsible=0;dropTarget=0;points=[[0,0.5],[1,0.5]];portConstraint=eastwest;top=0;left=0;right=0;bottom=1;" parent="PTO_yJPM0yT8PVMOKiED-2" vertex="1">
          <mxGeometry y="30" width="180" height="30" as="geometry" />
        </mxCell>
        <mxCell id="PTO_yJPM0yT8PVMOKiED-4" value="PK" style="shape=partialRectangle;connectable=0;fillColor=none;top=0;left=0;bottom=0;right=0;fontStyle=1;overflow=hidden;whiteSpace=wrap;html=1;" parent="PTO_yJPM0yT8PVMOKiED-3" vertex="1">
          <mxGeometry width="30" height="30" as="geometry">
            <mxRectangle width="30" height="30" as="alternateBounds" />
          </mxGeometry>
        </mxCell>
        <mxCell id="PTO_yJPM0yT8PVMOKiED-5" value="a_id" style="shape=partialRectangle;connectable=0;fillColor=none;top=0;left=0;bottom=0;right=0;align=left;spacingLeft=6;fontStyle=5;overflow=hidden;whiteSpace=wrap;html=1;" parent="PTO_yJPM0yT8PVMOKiED-3" vertex="1">
          <mxGeometry x="30" width="150" height="30" as="geometry">
            <mxRectangle width="150" height="30" as="alternateBounds" />
          </mxGeometry>
        </mxCell>
        <mxCell id="PTO_yJPM0yT8PVMOKiED-6" value="" style="shape=tableRow;horizontal=0;startSize=0;swimlaneHead=0;swimlaneBody=0;fillColor=none;collapsible=0;dropTarget=0;points=[[0,0.5],[1,0.5]];portConstraint=eastwest;top=0;left=0;right=0;bottom=0;" parent="PTO_yJPM0yT8PVMOKiED-2" vertex="1">
          <mxGeometry y="60" width="180" height="30" as="geometry" />
        </mxCell>
        <mxCell id="PTO_yJPM0yT8PVMOKiED-7" value="" style="shape=partialRectangle;connectable=0;fillColor=none;top=0;left=0;bottom=0;right=0;editable=1;overflow=hidden;whiteSpace=wrap;html=1;" parent="PTO_yJPM0yT8PVMOKiED-6" vertex="1">
          <mxGeometry width="30" height="30" as="geometry">
            <mxRectangle width="30" height="30" as="alternateBounds" />
          </mxGeometry>
        </mxCell>
        <mxCell id="PTO_yJPM0yT8PVMOKiED-8" value="author_name" style="shape=partialRectangle;connectable=0;fillColor=none;top=0;left=0;bottom=0;right=0;align=left;spacingLeft=6;overflow=hidden;whiteSpace=wrap;html=1;" parent="PTO_yJPM0yT8PVMOKiED-6" vertex="1">
          <mxGeometry x="30" width="150" height="30" as="geometry">
            <mxRectangle width="150" height="30" as="alternateBounds" />
          </mxGeometry>
        </mxCell>
        <mxCell id="PTO_yJPM0yT8PVMOKiED-9" value="" style="shape=tableRow;horizontal=0;startSize=0;swimlaneHead=0;swimlaneBody=0;fillColor=none;collapsible=0;dropTarget=0;points=[[0,0.5],[1,0.5]];portConstraint=eastwest;top=0;left=0;right=0;bottom=0;" parent="PTO_yJPM0yT8PVMOKiED-2" vertex="1">
          <mxGeometry y="90" width="180" height="40" as="geometry" />
        </mxCell>
        <mxCell id="PTO_yJPM0yT8PVMOKiED-10" value="" style="shape=partialRectangle;connectable=0;fillColor=none;top=0;left=0;bottom=0;right=0;editable=1;overflow=hidden;whiteSpace=wrap;html=1;" parent="PTO_yJPM0yT8PVMOKiED-9" vertex="1">
          <mxGeometry width="30" height="40" as="geometry">
            <mxRectangle width="30" height="40" as="alternateBounds" />
          </mxGeometry>
        </mxCell>
        <mxCell id="PTO_yJPM0yT8PVMOKiED-11" value="author_registration_time" style="shape=partialRectangle;connectable=0;fillColor=none;top=0;left=0;bottom=0;right=0;align=left;spacingLeft=6;overflow=hidden;whiteSpace=wrap;html=1;" parent="PTO_yJPM0yT8PVMOKiED-9" vertex="1">
          <mxGeometry x="30" width="150" height="40" as="geometry">
            <mxRectangle width="150" height="40" as="alternateBounds" />
          </mxGeometry>
        </mxCell>
        <mxCell id="PTO_yJPM0yT8PVMOKiED-12" value="" style="shape=tableRow;horizontal=0;startSize=0;swimlaneHead=0;swimlaneBody=0;fillColor=none;collapsible=0;dropTarget=0;points=[[0,0.5],[1,0.5]];portConstraint=eastwest;top=0;left=0;right=0;bottom=0;" parent="PTO_yJPM0yT8PVMOKiED-2" vertex="1">
          <mxGeometry y="130" width="180" height="30" as="geometry" />
        </mxCell>
        <mxCell id="PTO_yJPM0yT8PVMOKiED-13" value="" style="shape=partialRectangle;connectable=0;fillColor=none;top=0;left=0;bottom=0;right=0;editable=1;overflow=hidden;whiteSpace=wrap;html=1;" parent="PTO_yJPM0yT8PVMOKiED-12" vertex="1">
          <mxGeometry width="30" height="30" as="geometry">
            <mxRectangle width="30" height="30" as="alternateBounds" />
          </mxGeometry>
        </mxCell>
        <mxCell id="PTO_yJPM0yT8PVMOKiED-14" value="author_id" style="shape=partialRectangle;connectable=0;fillColor=none;top=0;left=0;bottom=0;right=0;align=left;spacingLeft=6;overflow=hidden;whiteSpace=wrap;html=1;" parent="PTO_yJPM0yT8PVMOKiED-12" vertex="1">
          <mxGeometry x="30" width="150" height="30" as="geometry">
            <mxRectangle width="150" height="30" as="alternateBounds" />
          </mxGeometry>
        </mxCell>
        <mxCell id="PTO_yJPM0yT8PVMOKiED-15" style="shape=tableRow;horizontal=0;startSize=0;swimlaneHead=0;swimlaneBody=0;fillColor=none;collapsible=0;dropTarget=0;points=[[0,0.5],[1,0.5]];portConstraint=eastwest;top=0;left=0;right=0;bottom=0;" parent="PTO_yJPM0yT8PVMOKiED-2" vertex="1">
          <mxGeometry y="160" width="180" height="30" as="geometry" />
        </mxCell>
        <mxCell id="PTO_yJPM0yT8PVMOKiED-16" style="shape=partialRectangle;connectable=0;fillColor=none;top=0;left=0;bottom=0;right=0;editable=1;overflow=hidden;whiteSpace=wrap;html=1;" parent="PTO_yJPM0yT8PVMOKiED-15" vertex="1">
          <mxGeometry width="30" height="30" as="geometry">
            <mxRectangle width="30" height="30" as="alternateBounds" />
          </mxGeometry>
        </mxCell>
        <mxCell id="PTO_yJPM0yT8PVMOKiED-17" value="author_phone_number" style="shape=partialRectangle;connectable=0;fillColor=none;top=0;left=0;bottom=0;right=0;align=left;spacingLeft=6;overflow=hidden;whiteSpace=wrap;html=1;" parent="PTO_yJPM0yT8PVMOKiED-15" vertex="1">
          <mxGeometry x="30" width="150" height="30" as="geometry">
            <mxRectangle width="150" height="30" as="alternateBounds" />
          </mxGeometry>
        </mxCell>
        <mxCell id="PTO_yJPM0yT8PVMOKiED-18" value="posts" style="shape=table;startSize=30;container=1;collapsible=1;childLayout=tableLayout;fixedRows=1;rowLines=0;fontStyle=1;align=center;resizeLast=1;html=1;" parent="1" vertex="1">
          <mxGeometry x="780" y="80" width="180" height="210" as="geometry" />
        </mxCell>
        <mxCell id="PTO_yJPM0yT8PVMOKiED-187" value="" style="shape=tableRow;horizontal=0;startSize=0;swimlaneHead=0;swimlaneBody=0;fillColor=none;collapsible=0;dropTarget=0;points=[[0,0.5],[1,0.5]];portConstraint=eastwest;top=0;left=0;right=0;bottom=1;" parent="PTO_yJPM0yT8PVMOKiED-18" vertex="1">
          <mxGeometry y="30" width="180" height="30" as="geometry" />
        </mxCell>
        <mxCell id="PTO_yJPM0yT8PVMOKiED-188" value="PK" style="shape=partialRectangle;connectable=0;fillColor=none;top=0;left=0;bottom=0;right=0;fontStyle=1;overflow=hidden;whiteSpace=wrap;html=1;" parent="PTO_yJPM0yT8PVMOKiED-187" vertex="1">
          <mxGeometry width="30" height="30" as="geometry">
            <mxRectangle width="30" height="30" as="alternateBounds" />
          </mxGeometry>
        </mxCell>
        <mxCell id="PTO_yJPM0yT8PVMOKiED-189" value="p_id" style="shape=partialRectangle;connectable=0;fillColor=none;top=0;left=0;bottom=0;right=0;align=left;spacingLeft=6;fontStyle=5;overflow=hidden;whiteSpace=wrap;html=1;" parent="PTO_yJPM0yT8PVMOKiED-187" vertex="1">
          <mxGeometry x="30" width="150" height="30" as="geometry">
            <mxRectangle width="150" height="30" as="alternateBounds" />
          </mxGeometry>
        </mxCell>
        <mxCell id="PTO_yJPM0yT8PVMOKiED-22" value="" style="shape=tableRow;horizontal=0;startSize=0;swimlaneHead=0;swimlaneBody=0;fillColor=none;collapsible=0;dropTarget=0;points=[[0,0.5],[1,0.5]];portConstraint=eastwest;top=0;left=0;right=0;bottom=0;" parent="PTO_yJPM0yT8PVMOKiED-18" vertex="1">
          <mxGeometry y="60" width="180" height="30" as="geometry" />
        </mxCell>
        <mxCell id="PTO_yJPM0yT8PVMOKiED-23" value="" style="shape=partialRectangle;connectable=0;fillColor=none;top=0;left=0;bottom=0;right=0;editable=1;overflow=hidden;whiteSpace=wrap;html=1;" parent="PTO_yJPM0yT8PVMOKiED-22" vertex="1">
          <mxGeometry width="30" height="30" as="geometry">
            <mxRectangle width="30" height="30" as="alternateBounds" />
          </mxGeometry>
        </mxCell>
        <mxCell id="PTO_yJPM0yT8PVMOKiED-24" value="a_id" style="shape=partialRectangle;connectable=0;fillColor=none;top=0;left=0;bottom=0;right=0;align=left;spacingLeft=6;overflow=hidden;whiteSpace=wrap;html=1;" parent="PTO_yJPM0yT8PVMOKiED-22" vertex="1">
          <mxGeometry x="30" width="150" height="30" as="geometry">
            <mxRectangle width="150" height="30" as="alternateBounds" />
          </mxGeometry>
        </mxCell>
        <mxCell id="PTO_yJPM0yT8PVMOKiED-25" value="" style="shape=tableRow;horizontal=0;startSize=0;swimlaneHead=0;swimlaneBody=0;fillColor=none;collapsible=0;dropTarget=0;points=[[0,0.5],[1,0.5]];portConstraint=eastwest;top=0;left=0;right=0;bottom=0;" parent="PTO_yJPM0yT8PVMOKiED-18" vertex="1">
          <mxGeometry y="90" width="180" height="30" as="geometry" />
        </mxCell>
        <mxCell id="PTO_yJPM0yT8PVMOKiED-26" value="" style="shape=partialRectangle;connectable=0;fillColor=none;top=0;left=0;bottom=0;right=0;editable=1;overflow=hidden;whiteSpace=wrap;html=1;" parent="PTO_yJPM0yT8PVMOKiED-25" vertex="1">
          <mxGeometry width="30" height="30" as="geometry">
            <mxRectangle width="30" height="30" as="alternateBounds" />
          </mxGeometry>
        </mxCell>
        <mxCell id="PTO_yJPM0yT8PVMOKiED-27" value="title" style="shape=partialRectangle;connectable=0;fillColor=none;top=0;left=0;bottom=0;right=0;align=left;spacingLeft=6;overflow=hidden;whiteSpace=wrap;html=1;" parent="PTO_yJPM0yT8PVMOKiED-25" vertex="1">
          <mxGeometry x="30" width="150" height="30" as="geometry">
            <mxRectangle width="150" height="30" as="alternateBounds" />
          </mxGeometry>
        </mxCell>
        <mxCell id="PTO_yJPM0yT8PVMOKiED-28" value="" style="shape=tableRow;horizontal=0;startSize=0;swimlaneHead=0;swimlaneBody=0;fillColor=none;collapsible=0;dropTarget=0;points=[[0,0.5],[1,0.5]];portConstraint=eastwest;top=0;left=0;right=0;bottom=0;" parent="PTO_yJPM0yT8PVMOKiED-18" vertex="1">
          <mxGeometry y="120" width="180" height="30" as="geometry" />
        </mxCell>
        <mxCell id="PTO_yJPM0yT8PVMOKiED-29" value="" style="shape=partialRectangle;connectable=0;fillColor=none;top=0;left=0;bottom=0;right=0;editable=1;overflow=hidden;whiteSpace=wrap;html=1;" parent="PTO_yJPM0yT8PVMOKiED-28" vertex="1">
          <mxGeometry width="30" height="30" as="geometry">
            <mxRectangle width="30" height="30" as="alternateBounds" />
          </mxGeometry>
        </mxCell>
        <mxCell id="PTO_yJPM0yT8PVMOKiED-30" value="content" style="shape=partialRectangle;connectable=0;fillColor=none;top=0;left=0;bottom=0;right=0;align=left;spacingLeft=6;overflow=hidden;whiteSpace=wrap;html=1;" parent="PTO_yJPM0yT8PVMOKiED-28" vertex="1">
          <mxGeometry x="30" width="150" height="30" as="geometry">
            <mxRectangle width="150" height="30" as="alternateBounds" />
          </mxGeometry>
        </mxCell>
        <mxCell id="PTO_yJPM0yT8PVMOKiED-34" style="shape=tableRow;horizontal=0;startSize=0;swimlaneHead=0;swimlaneBody=0;fillColor=none;collapsible=0;dropTarget=0;points=[[0,0.5],[1,0.5]];portConstraint=eastwest;top=0;left=0;right=0;bottom=0;" parent="PTO_yJPM0yT8PVMOKiED-18" vertex="1">
          <mxGeometry y="150" width="180" height="30" as="geometry" />
        </mxCell>
        <mxCell id="PTO_yJPM0yT8PVMOKiED-35" style="shape=partialRectangle;connectable=0;fillColor=none;top=0;left=0;bottom=0;right=0;editable=1;overflow=hidden;whiteSpace=wrap;html=1;" parent="PTO_yJPM0yT8PVMOKiED-34" vertex="1">
          <mxGeometry width="30" height="30" as="geometry">
            <mxRectangle width="30" height="30" as="alternateBounds" />
          </mxGeometry>
        </mxCell>
        <mxCell id="PTO_yJPM0yT8PVMOKiED-36" value="posting_time" style="shape=partialRectangle;connectable=0;fillColor=none;top=0;left=0;bottom=0;right=0;align=left;spacingLeft=6;overflow=hidden;whiteSpace=wrap;html=1;" parent="PTO_yJPM0yT8PVMOKiED-34" vertex="1">
          <mxGeometry x="30" width="150" height="30" as="geometry">
            <mxRectangle width="150" height="30" as="alternateBounds" />
          </mxGeometry>
        </mxCell>
        <mxCell id="PTO_yJPM0yT8PVMOKiED-40" style="shape=tableRow;horizontal=0;startSize=0;swimlaneHead=0;swimlaneBody=0;fillColor=none;collapsible=0;dropTarget=0;points=[[0,0.5],[1,0.5]];portConstraint=eastwest;top=0;left=0;right=0;bottom=0;" parent="PTO_yJPM0yT8PVMOKiED-18" vertex="1">
          <mxGeometry y="180" width="180" height="30" as="geometry" />
        </mxCell>
        <mxCell id="PTO_yJPM0yT8PVMOKiED-41" style="shape=partialRectangle;connectable=0;fillColor=none;top=0;left=0;bottom=0;right=0;editable=1;overflow=hidden;whiteSpace=wrap;html=1;" parent="PTO_yJPM0yT8PVMOKiED-40" vertex="1">
          <mxGeometry width="30" height="30" as="geometry">
            <mxRectangle width="30" height="30" as="alternateBounds" />
          </mxGeometry>
        </mxCell>
        <mxCell id="PTO_yJPM0yT8PVMOKiED-42" value="posting_city" style="shape=partialRectangle;connectable=0;fillColor=none;top=0;left=0;bottom=0;right=0;align=left;spacingLeft=6;overflow=hidden;whiteSpace=wrap;html=1;" parent="PTO_yJPM0yT8PVMOKiED-40" vertex="1">
          <mxGeometry x="30" width="150" height="30" as="geometry">
            <mxRectangle width="150" height="30" as="alternateBounds" />
          </mxGeometry>
        </mxCell>
        <mxCell id="PTO_yJPM0yT8PVMOKiED-43" value="cities" style="shape=table;startSize=30;container=1;collapsible=1;childLayout=tableLayout;fixedRows=1;rowLines=0;fontStyle=1;align=center;resizeLast=1;html=1;" parent="1" vertex="1">
          <mxGeometry x="1030" y="75" width="180" height="90" as="geometry" />
        </mxCell>
        <mxCell id="PTO_yJPM0yT8PVMOKiED-44" value="" style="shape=tableRow;horizontal=0;startSize=0;swimlaneHead=0;swimlaneBody=0;fillColor=none;collapsible=0;dropTarget=0;points=[[0,0.5],[1,0.5]];portConstraint=eastwest;top=0;left=0;right=0;bottom=1;" parent="PTO_yJPM0yT8PVMOKiED-43" vertex="1">
          <mxGeometry y="30" width="180" height="30" as="geometry" />
        </mxCell>
        <mxCell id="PTO_yJPM0yT8PVMOKiED-45" value="PK" style="shape=partialRectangle;connectable=0;fillColor=none;top=0;left=0;bottom=0;right=0;fontStyle=1;overflow=hidden;whiteSpace=wrap;html=1;" parent="PTO_yJPM0yT8PVMOKiED-44" vertex="1">
          <mxGeometry width="30" height="30" as="geometry">
            <mxRectangle width="30" height="30" as="alternateBounds" />
          </mxGeometry>
        </mxCell>
        <mxCell id="PTO_yJPM0yT8PVMOKiED-46" value="city_name" style="shape=partialRectangle;connectable=0;fillColor=none;top=0;left=0;bottom=0;right=0;align=left;spacingLeft=6;fontStyle=5;overflow=hidden;whiteSpace=wrap;html=1;" parent="PTO_yJPM0yT8PVMOKiED-44" vertex="1">
          <mxGeometry x="30" width="150" height="30" as="geometry">
            <mxRectangle width="150" height="30" as="alternateBounds" />
          </mxGeometry>
        </mxCell>
        <mxCell id="PTO_yJPM0yT8PVMOKiED-47" value="" style="shape=tableRow;horizontal=0;startSize=0;swimlaneHead=0;swimlaneBody=0;fillColor=none;collapsible=0;dropTarget=0;points=[[0,0.5],[1,0.5]];portConstraint=eastwest;top=0;left=0;right=0;bottom=0;" parent="PTO_yJPM0yT8PVMOKiED-43" vertex="1">
          <mxGeometry y="60" width="180" height="30" as="geometry" />
        </mxCell>
        <mxCell id="PTO_yJPM0yT8PVMOKiED-48" value="" style="shape=partialRectangle;connectable=0;fillColor=none;top=0;left=0;bottom=0;right=0;editable=1;overflow=hidden;whiteSpace=wrap;html=1;" parent="PTO_yJPM0yT8PVMOKiED-47" vertex="1">
          <mxGeometry width="30" height="30" as="geometry">
            <mxRectangle width="30" height="30" as="alternateBounds" />
          </mxGeometry>
        </mxCell>
        <mxCell id="PTO_yJPM0yT8PVMOKiED-49" value="city_country" style="shape=partialRectangle;connectable=0;fillColor=none;top=0;left=0;bottom=0;right=0;align=left;spacingLeft=6;overflow=hidden;whiteSpace=wrap;html=1;" parent="PTO_yJPM0yT8PVMOKiED-47" vertex="1">
          <mxGeometry x="30" width="150" height="30" as="geometry">
            <mxRectangle width="150" height="30" as="alternateBounds" />
          </mxGeometry>
        </mxCell>
        <mxCell id="PTO_yJPM0yT8PVMOKiED-56" value="category" style="shape=table;startSize=30;container=1;collapsible=1;childLayout=tableLayout;fixedRows=1;rowLines=0;fontStyle=1;align=center;resizeLast=1;html=1;" parent="1" vertex="1">
          <mxGeometry x="707.5" y="400" width="180" height="90" as="geometry" />
        </mxCell>
        <mxCell id="PTO_yJPM0yT8PVMOKiED-57" value="" style="shape=tableRow;horizontal=0;startSize=0;swimlaneHead=0;swimlaneBody=0;fillColor=none;collapsible=0;dropTarget=0;points=[[0,0.5],[1,0.5]];portConstraint=eastwest;top=0;left=0;right=0;bottom=1;" parent="PTO_yJPM0yT8PVMOKiED-56" vertex="1">
          <mxGeometry y="30" width="180" height="30" as="geometry" />
        </mxCell>
        <mxCell id="PTO_yJPM0yT8PVMOKiED-58" value="PK" style="shape=partialRectangle;connectable=0;fillColor=none;top=0;left=0;bottom=0;right=0;fontStyle=1;overflow=hidden;whiteSpace=wrap;html=1;" parent="PTO_yJPM0yT8PVMOKiED-57" vertex="1">
          <mxGeometry width="30" height="30" as="geometry">
            <mxRectangle width="30" height="30" as="alternateBounds" />
          </mxGeometry>
        </mxCell>
        <mxCell id="PTO_yJPM0yT8PVMOKiED-59" value="c_id" style="shape=partialRectangle;connectable=0;fillColor=none;top=0;left=0;bottom=0;right=0;align=left;spacingLeft=6;fontStyle=5;overflow=hidden;whiteSpace=wrap;html=1;" parent="PTO_yJPM0yT8PVMOKiED-57" vertex="1">
          <mxGeometry x="30" width="150" height="30" as="geometry">
            <mxRectangle width="150" height="30" as="alternateBounds" />
          </mxGeometry>
        </mxCell>
        <mxCell id="PTO_yJPM0yT8PVMOKiED-60" value="" style="shape=tableRow;horizontal=0;startSize=0;swimlaneHead=0;swimlaneBody=0;fillColor=none;collapsible=0;dropTarget=0;points=[[0,0.5],[1,0.5]];portConstraint=eastwest;top=0;left=0;right=0;bottom=0;" parent="PTO_yJPM0yT8PVMOKiED-56" vertex="1">
          <mxGeometry y="60" width="180" height="30" as="geometry" />
        </mxCell>
        <mxCell id="PTO_yJPM0yT8PVMOKiED-61" value="" style="shape=partialRectangle;connectable=0;fillColor=none;top=0;left=0;bottom=0;right=0;editable=1;overflow=hidden;whiteSpace=wrap;html=1;" parent="PTO_yJPM0yT8PVMOKiED-60" vertex="1">
          <mxGeometry width="30" height="30" as="geometry">
            <mxRectangle width="30" height="30" as="alternateBounds" />
          </mxGeometry>
        </mxCell>
        <mxCell id="PTO_yJPM0yT8PVMOKiED-62" value="category_name" style="shape=partialRectangle;connectable=0;fillColor=none;top=0;left=0;bottom=0;right=0;align=left;spacingLeft=6;overflow=hidden;whiteSpace=wrap;html=1;" parent="PTO_yJPM0yT8PVMOKiED-60" vertex="1">
          <mxGeometry x="30" width="150" height="30" as="geometry">
            <mxRectangle width="150" height="30" as="alternateBounds" />
          </mxGeometry>
        </mxCell>
        <mxCell id="PTO_yJPM0yT8PVMOKiED-69" value="post_category" style="shape=table;startSize=30;container=1;collapsible=1;childLayout=tableLayout;fixedRows=1;rowLines=0;fontStyle=1;align=center;resizeLast=1;html=1;" parent="1" vertex="1">
          <mxGeometry x="1107.75" y="400" width="180" height="90" as="geometry" />
        </mxCell>
        <mxCell id="PTO_yJPM0yT8PVMOKiED-70" value="" style="shape=tableRow;horizontal=0;startSize=0;swimlaneHead=0;swimlaneBody=0;fillColor=none;collapsible=0;dropTarget=0;points=[[0,0.5],[1,0.5]];portConstraint=eastwest;top=0;left=0;right=0;bottom=1;" parent="PTO_yJPM0yT8PVMOKiED-69" vertex="1">
          <mxGeometry y="30" width="180" height="60" as="geometry" />
        </mxCell>
        <mxCell id="PTO_yJPM0yT8PVMOKiED-71" value="PK" style="shape=partialRectangle;connectable=0;fillColor=none;top=0;left=0;bottom=0;right=0;fontStyle=1;overflow=hidden;whiteSpace=wrap;html=1;" parent="PTO_yJPM0yT8PVMOKiED-70" vertex="1">
          <mxGeometry width="30" height="60" as="geometry">
            <mxRectangle width="30" height="60" as="alternateBounds" />
          </mxGeometry>
        </mxCell>
        <mxCell id="PTO_yJPM0yT8PVMOKiED-72" value="p_id&lt;br&gt;&lt;br&gt;c_id" style="shape=partialRectangle;connectable=0;fillColor=none;top=0;left=0;bottom=0;right=0;align=left;spacingLeft=6;fontStyle=5;overflow=hidden;whiteSpace=wrap;html=1;" parent="PTO_yJPM0yT8PVMOKiED-70" vertex="1">
          <mxGeometry x="30" width="150" height="60" as="geometry">
            <mxRectangle width="150" height="60" as="alternateBounds" />
          </mxGeometry>
        </mxCell>
        <mxCell id="PTO_yJPM0yT8PVMOKiED-85" value="followed" style="shape=table;startSize=30;container=1;collapsible=1;childLayout=tableLayout;fixedRows=1;rowLines=0;fontStyle=1;align=center;resizeLast=1;html=1;" parent="1" vertex="1">
          <mxGeometry x="923.75" y="-110" width="180" height="80" as="geometry" />
        </mxCell>
        <mxCell id="PTO_yJPM0yT8PVMOKiED-86" value="" style="shape=tableRow;horizontal=0;startSize=0;swimlaneHead=0;swimlaneBody=0;fillColor=none;collapsible=0;dropTarget=0;points=[[0,0.5],[1,0.5]];portConstraint=eastwest;top=0;left=0;right=0;bottom=1;" parent="PTO_yJPM0yT8PVMOKiED-85" vertex="1">
          <mxGeometry y="30" width="180" height="50" as="geometry" />
        </mxCell>
        <mxCell id="PTO_yJPM0yT8PVMOKiED-87" value="PK" style="shape=partialRectangle;connectable=0;fillColor=none;top=0;left=0;bottom=0;right=0;fontStyle=1;overflow=hidden;whiteSpace=wrap;html=1;" parent="PTO_yJPM0yT8PVMOKiED-86" vertex="1">
          <mxGeometry width="30" height="50" as="geometry">
            <mxRectangle width="30" height="50" as="alternateBounds" />
          </mxGeometry>
        </mxCell>
        <mxCell id="PTO_yJPM0yT8PVMOKiED-88" value="a_id&lt;br&gt;&lt;br&gt;followed_id" style="shape=partialRectangle;connectable=0;fillColor=none;top=0;left=0;bottom=0;right=0;align=left;spacingLeft=6;fontStyle=5;overflow=hidden;whiteSpace=wrap;html=1;" parent="PTO_yJPM0yT8PVMOKiED-86" vertex="1">
          <mxGeometry x="30" width="150" height="50" as="geometry">
            <mxRectangle width="150" height="50" as="alternateBounds" />
          </mxGeometry>
        </mxCell>
        <mxCell id="PTO_yJPM0yT8PVMOKiED-98" value="favorited" style="shape=table;startSize=30;container=1;collapsible=1;childLayout=tableLayout;fixedRows=1;rowLines=0;fontStyle=1;align=center;resizeLast=1;html=1;swimlaneFillColor=default;" parent="1" vertex="1">
          <mxGeometry x="475" y="405" width="180" height="80" as="geometry" />
        </mxCell>
        <mxCell id="PTO_yJPM0yT8PVMOKiED-99" value="" style="shape=tableRow;horizontal=0;startSize=0;swimlaneHead=0;swimlaneBody=0;fillColor=none;collapsible=0;dropTarget=0;points=[[0,0.5],[1,0.5]];portConstraint=eastwest;top=0;left=0;right=0;bottom=1;" parent="PTO_yJPM0yT8PVMOKiED-98" vertex="1">
          <mxGeometry y="30" width="180" height="50" as="geometry" />
        </mxCell>
        <mxCell id="PTO_yJPM0yT8PVMOKiED-100" value="PK" style="shape=partialRectangle;connectable=0;fillColor=none;top=0;left=0;bottom=0;right=0;fontStyle=1;overflow=hidden;whiteSpace=wrap;html=1;" parent="PTO_yJPM0yT8PVMOKiED-99" vertex="1">
          <mxGeometry width="30" height="50" as="geometry">
            <mxRectangle width="30" height="50" as="alternateBounds" />
          </mxGeometry>
        </mxCell>
        <mxCell id="PTO_yJPM0yT8PVMOKiED-101" value="p_id&lt;br&gt;&lt;br&gt;favorited_id" style="shape=partialRectangle;connectable=0;fillColor=none;top=0;left=0;bottom=0;right=0;align=left;spacingLeft=6;fontStyle=5;overflow=hidden;whiteSpace=wrap;html=1;" parent="PTO_yJPM0yT8PVMOKiED-99" vertex="1">
          <mxGeometry x="30" width="150" height="50" as="geometry">
            <mxRectangle width="150" height="50" as="alternateBounds" />
          </mxGeometry>
        </mxCell>
        <mxCell id="PTO_yJPM0yT8PVMOKiED-102" value="liked" style="shape=table;startSize=30;container=1;collapsible=1;childLayout=tableLayout;fixedRows=1;rowLines=0;fontStyle=1;align=center;resizeLast=1;html=1;" parent="1" vertex="1">
          <mxGeometry x="235" y="405" width="180" height="80" as="geometry" />
        </mxCell>
        <mxCell id="PTO_yJPM0yT8PVMOKiED-103" value="" style="shape=tableRow;horizontal=0;startSize=0;swimlaneHead=0;swimlaneBody=0;fillColor=none;collapsible=0;dropTarget=0;points=[[0,0.5],[1,0.5]];portConstraint=eastwest;top=0;left=0;right=0;bottom=1;" parent="PTO_yJPM0yT8PVMOKiED-102" vertex="1">
          <mxGeometry y="30" width="180" height="50" as="geometry" />
        </mxCell>
        <mxCell id="PTO_yJPM0yT8PVMOKiED-104" value="PK" style="shape=partialRectangle;connectable=0;fillColor=none;top=0;left=0;bottom=0;right=0;fontStyle=1;overflow=hidden;whiteSpace=wrap;html=1;" parent="PTO_yJPM0yT8PVMOKiED-103" vertex="1">
          <mxGeometry width="30" height="50" as="geometry">
            <mxRectangle width="30" height="50" as="alternateBounds" />
          </mxGeometry>
        </mxCell>
        <mxCell id="PTO_yJPM0yT8PVMOKiED-105" value="p_id&lt;br&gt;&lt;br&gt;liked_id" style="shape=partialRectangle;connectable=0;fillColor=none;top=0;left=0;bottom=0;right=0;align=left;spacingLeft=6;fontStyle=5;overflow=hidden;whiteSpace=wrap;html=1;" parent="PTO_yJPM0yT8PVMOKiED-103" vertex="1">
          <mxGeometry x="30" width="150" height="50" as="geometry">
            <mxRectangle width="150" height="50" as="alternateBounds" />
          </mxGeometry>
        </mxCell>
        <mxCell id="PTO_yJPM0yT8PVMOKiED-106" value="shared" style="shape=table;startSize=30;container=1;collapsible=1;childLayout=tableLayout;fixedRows=1;rowLines=0;fontStyle=1;align=center;resizeLast=1;html=1;" parent="1" vertex="1">
          <mxGeometry x="-15" y="405" width="180" height="80" as="geometry" />
        </mxCell>
        <mxCell id="PTO_yJPM0yT8PVMOKiED-107" value="" style="shape=tableRow;horizontal=0;startSize=0;swimlaneHead=0;swimlaneBody=0;fillColor=none;collapsible=0;dropTarget=0;points=[[0,0.5],[1,0.5]];portConstraint=eastwest;top=0;left=0;right=0;bottom=1;" parent="PTO_yJPM0yT8PVMOKiED-106" vertex="1">
          <mxGeometry y="30" width="180" height="50" as="geometry" />
        </mxCell>
        <mxCell id="PTO_yJPM0yT8PVMOKiED-108" value="PK" style="shape=partialRectangle;connectable=0;fillColor=none;top=0;left=0;bottom=0;right=0;fontStyle=1;overflow=hidden;whiteSpace=wrap;html=1;" parent="PTO_yJPM0yT8PVMOKiED-107" vertex="1">
          <mxGeometry width="30" height="50" as="geometry">
            <mxRectangle width="30" height="50" as="alternateBounds" />
          </mxGeometry>
        </mxCell>
        <mxCell id="PTO_yJPM0yT8PVMOKiED-109" value="p_id&lt;br&gt;&lt;br&gt;shared_id" style="shape=partialRectangle;connectable=0;fillColor=none;top=0;left=0;bottom=0;right=0;align=left;spacingLeft=6;fontStyle=5;overflow=hidden;whiteSpace=wrap;html=1;" parent="PTO_yJPM0yT8PVMOKiED-107" vertex="1">
          <mxGeometry x="30" width="150" height="50" as="geometry">
            <mxRectangle width="150" height="50" as="alternateBounds" />
          </mxGeometry>
        </mxCell>
        <mxCell id="PTO_yJPM0yT8PVMOKiED-110" value="replies" style="shape=table;startSize=30;container=1;collapsible=1;childLayout=tableLayout;fixedRows=1;rowLines=0;fontStyle=1;align=center;resizeLast=1;html=1;" parent="1" vertex="1">
          <mxGeometry x="589" y="660" width="180" height="180" as="geometry" />
        </mxCell>
        <mxCell id="PTO_yJPM0yT8PVMOKiED-111" value="" style="shape=tableRow;horizontal=0;startSize=0;swimlaneHead=0;swimlaneBody=0;fillColor=none;collapsible=0;dropTarget=0;points=[[0,0.5],[1,0.5]];portConstraint=eastwest;top=0;left=0;right=0;bottom=1;" parent="PTO_yJPM0yT8PVMOKiED-110" vertex="1">
          <mxGeometry y="30" width="180" height="30" as="geometry" />
        </mxCell>
        <mxCell id="PTO_yJPM0yT8PVMOKiED-112" value="PK" style="shape=partialRectangle;connectable=0;fillColor=none;top=0;left=0;bottom=0;right=0;fontStyle=1;overflow=hidden;whiteSpace=wrap;html=1;" parent="PTO_yJPM0yT8PVMOKiED-111" vertex="1">
          <mxGeometry width="30" height="30" as="geometry">
            <mxRectangle width="30" height="30" as="alternateBounds" />
          </mxGeometry>
        </mxCell>
        <mxCell id="PTO_yJPM0yT8PVMOKiED-113" value="r_id1" style="shape=partialRectangle;connectable=0;fillColor=none;top=0;left=0;bottom=0;right=0;align=left;spacingLeft=6;fontStyle=5;overflow=hidden;whiteSpace=wrap;html=1;" parent="PTO_yJPM0yT8PVMOKiED-111" vertex="1">
          <mxGeometry x="30" width="150" height="30" as="geometry">
            <mxRectangle width="150" height="30" as="alternateBounds" />
          </mxGeometry>
        </mxCell>
        <mxCell id="PTO_yJPM0yT8PVMOKiED-114" value="" style="shape=tableRow;horizontal=0;startSize=0;swimlaneHead=0;swimlaneBody=0;fillColor=none;collapsible=0;dropTarget=0;points=[[0,0.5],[1,0.5]];portConstraint=eastwest;top=0;left=0;right=0;bottom=0;" parent="PTO_yJPM0yT8PVMOKiED-110" vertex="1">
          <mxGeometry y="60" width="180" height="30" as="geometry" />
        </mxCell>
        <mxCell id="PTO_yJPM0yT8PVMOKiED-115" value="" style="shape=partialRectangle;connectable=0;fillColor=none;top=0;left=0;bottom=0;right=0;editable=1;overflow=hidden;whiteSpace=wrap;html=1;" parent="PTO_yJPM0yT8PVMOKiED-114" vertex="1">
          <mxGeometry width="30" height="30" as="geometry">
            <mxRectangle width="30" height="30" as="alternateBounds" />
          </mxGeometry>
        </mxCell>
        <mxCell id="PTO_yJPM0yT8PVMOKiED-116" value="p_id" style="shape=partialRectangle;connectable=0;fillColor=none;top=0;left=0;bottom=0;right=0;align=left;spacingLeft=6;overflow=hidden;whiteSpace=wrap;html=1;" parent="PTO_yJPM0yT8PVMOKiED-114" vertex="1">
          <mxGeometry x="30" width="150" height="30" as="geometry">
            <mxRectangle width="150" height="30" as="alternateBounds" />
          </mxGeometry>
        </mxCell>
        <mxCell id="PTO_yJPM0yT8PVMOKiED-117" value="" style="shape=tableRow;horizontal=0;startSize=0;swimlaneHead=0;swimlaneBody=0;fillColor=none;collapsible=0;dropTarget=0;points=[[0,0.5],[1,0.5]];portConstraint=eastwest;top=0;left=0;right=0;bottom=0;" parent="PTO_yJPM0yT8PVMOKiED-110" vertex="1">
          <mxGeometry y="90" width="180" height="30" as="geometry" />
        </mxCell>
        <mxCell id="PTO_yJPM0yT8PVMOKiED-118" value="" style="shape=partialRectangle;connectable=0;fillColor=none;top=0;left=0;bottom=0;right=0;editable=1;overflow=hidden;whiteSpace=wrap;html=1;" parent="PTO_yJPM0yT8PVMOKiED-117" vertex="1">
          <mxGeometry width="30" height="30" as="geometry">
            <mxRectangle width="30" height="30" as="alternateBounds" />
          </mxGeometry>
        </mxCell>
        <mxCell id="PTO_yJPM0yT8PVMOKiED-119" value="reply_content" style="shape=partialRectangle;connectable=0;fillColor=none;top=0;left=0;bottom=0;right=0;align=left;spacingLeft=6;overflow=hidden;whiteSpace=wrap;html=1;" parent="PTO_yJPM0yT8PVMOKiED-117" vertex="1">
          <mxGeometry x="30" width="150" height="30" as="geometry">
            <mxRectangle width="150" height="30" as="alternateBounds" />
          </mxGeometry>
        </mxCell>
        <mxCell id="PTO_yJPM0yT8PVMOKiED-120" value="" style="shape=tableRow;horizontal=0;startSize=0;swimlaneHead=0;swimlaneBody=0;fillColor=none;collapsible=0;dropTarget=0;points=[[0,0.5],[1,0.5]];portConstraint=eastwest;top=0;left=0;right=0;bottom=0;" parent="PTO_yJPM0yT8PVMOKiED-110" vertex="1">
          <mxGeometry y="120" width="180" height="30" as="geometry" />
        </mxCell>
        <mxCell id="PTO_yJPM0yT8PVMOKiED-121" value="" style="shape=partialRectangle;connectable=0;fillColor=none;top=0;left=0;bottom=0;right=0;editable=1;overflow=hidden;whiteSpace=wrap;html=1;" parent="PTO_yJPM0yT8PVMOKiED-120" vertex="1">
          <mxGeometry width="30" height="30" as="geometry">
            <mxRectangle width="30" height="30" as="alternateBounds" />
          </mxGeometry>
        </mxCell>
        <mxCell id="PTO_yJPM0yT8PVMOKiED-122" value="reply_stars" style="shape=partialRectangle;connectable=0;fillColor=none;top=0;left=0;bottom=0;right=0;align=left;spacingLeft=6;overflow=hidden;whiteSpace=wrap;html=1;" parent="PTO_yJPM0yT8PVMOKiED-120" vertex="1">
          <mxGeometry x="30" width="150" height="30" as="geometry">
            <mxRectangle width="150" height="30" as="alternateBounds" />
          </mxGeometry>
        </mxCell>
        <mxCell id="PTO_yJPM0yT8PVMOKiED-123" style="shape=tableRow;horizontal=0;startSize=0;swimlaneHead=0;swimlaneBody=0;fillColor=none;collapsible=0;dropTarget=0;points=[[0,0.5],[1,0.5]];portConstraint=eastwest;top=0;left=0;right=0;bottom=0;" parent="PTO_yJPM0yT8PVMOKiED-110" vertex="1">
          <mxGeometry y="150" width="180" height="30" as="geometry" />
        </mxCell>
        <mxCell id="PTO_yJPM0yT8PVMOKiED-124" style="shape=partialRectangle;connectable=0;fillColor=none;top=0;left=0;bottom=0;right=0;editable=1;overflow=hidden;whiteSpace=wrap;html=1;" parent="PTO_yJPM0yT8PVMOKiED-123" vertex="1">
          <mxGeometry width="30" height="30" as="geometry">
            <mxRectangle width="30" height="30" as="alternateBounds" />
          </mxGeometry>
        </mxCell>
        <mxCell id="PTO_yJPM0yT8PVMOKiED-125" value="relpy_author_id" style="shape=partialRectangle;connectable=0;fillColor=none;top=0;left=0;bottom=0;right=0;align=left;spacingLeft=6;overflow=hidden;whiteSpace=wrap;html=1;" parent="PTO_yJPM0yT8PVMOKiED-123" vertex="1">
          <mxGeometry x="30" width="150" height="30" as="geometry">
            <mxRectangle width="150" height="30" as="alternateBounds" />
          </mxGeometry>
        </mxCell>
        <mxCell id="PTO_yJPM0yT8PVMOKiED-126" value="secondary_replies" style="shape=table;startSize=30;container=1;collapsible=1;childLayout=tableLayout;fixedRows=1;rowLines=0;fontStyle=1;align=center;resizeLast=1;html=1;" parent="1" vertex="1">
          <mxGeometry x="110" y="660" width="195" height="180" as="geometry" />
        </mxCell>
        <mxCell id="PTO_yJPM0yT8PVMOKiED-127" value="" style="shape=tableRow;horizontal=0;startSize=0;swimlaneHead=0;swimlaneBody=0;fillColor=none;collapsible=0;dropTarget=0;points=[[0,0.5],[1,0.5]];portConstraint=eastwest;top=0;left=0;right=0;bottom=1;" parent="PTO_yJPM0yT8PVMOKiED-126" vertex="1">
          <mxGeometry y="30" width="195" height="30" as="geometry" />
        </mxCell>
        <mxCell id="PTO_yJPM0yT8PVMOKiED-128" value="PK" style="shape=partialRectangle;connectable=0;fillColor=none;top=0;left=0;bottom=0;right=0;fontStyle=1;overflow=hidden;whiteSpace=wrap;html=1;" parent="PTO_yJPM0yT8PVMOKiED-127" vertex="1">
          <mxGeometry width="30" height="30" as="geometry">
            <mxRectangle width="30" height="30" as="alternateBounds" />
          </mxGeometry>
        </mxCell>
        <mxCell id="PTO_yJPM0yT8PVMOKiED-129" value="r_id2" style="shape=partialRectangle;connectable=0;fillColor=none;top=0;left=0;bottom=0;right=0;align=left;spacingLeft=6;fontStyle=5;overflow=hidden;whiteSpace=wrap;html=1;" parent="PTO_yJPM0yT8PVMOKiED-127" vertex="1">
          <mxGeometry x="30" width="165" height="30" as="geometry">
            <mxRectangle width="165" height="30" as="alternateBounds" />
          </mxGeometry>
        </mxCell>
        <mxCell id="PTO_yJPM0yT8PVMOKiED-130" value="" style="shape=tableRow;horizontal=0;startSize=0;swimlaneHead=0;swimlaneBody=0;fillColor=none;collapsible=0;dropTarget=0;points=[[0,0.5],[1,0.5]];portConstraint=eastwest;top=0;left=0;right=0;bottom=0;" parent="PTO_yJPM0yT8PVMOKiED-126" vertex="1">
          <mxGeometry y="60" width="195" height="30" as="geometry" />
        </mxCell>
        <mxCell id="PTO_yJPM0yT8PVMOKiED-131" value="" style="shape=partialRectangle;connectable=0;fillColor=none;top=0;left=0;bottom=0;right=0;editable=1;overflow=hidden;whiteSpace=wrap;html=1;" parent="PTO_yJPM0yT8PVMOKiED-130" vertex="1">
          <mxGeometry width="30" height="30" as="geometry">
            <mxRectangle width="30" height="30" as="alternateBounds" />
          </mxGeometry>
        </mxCell>
        <mxCell id="PTO_yJPM0yT8PVMOKiED-132" value="r_id1" style="shape=partialRectangle;connectable=0;fillColor=none;top=0;left=0;bottom=0;right=0;align=left;spacingLeft=6;overflow=hidden;whiteSpace=wrap;html=1;" parent="PTO_yJPM0yT8PVMOKiED-130" vertex="1">
          <mxGeometry x="30" width="165" height="30" as="geometry">
            <mxRectangle width="165" height="30" as="alternateBounds" />
          </mxGeometry>
        </mxCell>
        <mxCell id="PTO_yJPM0yT8PVMOKiED-133" value="" style="shape=tableRow;horizontal=0;startSize=0;swimlaneHead=0;swimlaneBody=0;fillColor=none;collapsible=0;dropTarget=0;points=[[0,0.5],[1,0.5]];portConstraint=eastwest;top=0;left=0;right=0;bottom=0;" parent="PTO_yJPM0yT8PVMOKiED-126" vertex="1">
          <mxGeometry y="90" width="195" height="30" as="geometry" />
        </mxCell>
        <mxCell id="PTO_yJPM0yT8PVMOKiED-134" value="" style="shape=partialRectangle;connectable=0;fillColor=none;top=0;left=0;bottom=0;right=0;editable=1;overflow=hidden;whiteSpace=wrap;html=1;" parent="PTO_yJPM0yT8PVMOKiED-133" vertex="1">
          <mxGeometry width="30" height="30" as="geometry">
            <mxRectangle width="30" height="30" as="alternateBounds" />
          </mxGeometry>
        </mxCell>
        <mxCell id="PTO_yJPM0yT8PVMOKiED-135" value="secondary_reply_content" style="shape=partialRectangle;connectable=0;fillColor=none;top=0;left=0;bottom=0;right=0;align=left;spacingLeft=6;overflow=hidden;whiteSpace=wrap;html=1;" parent="PTO_yJPM0yT8PVMOKiED-133" vertex="1">
          <mxGeometry x="30" width="165" height="30" as="geometry">
            <mxRectangle width="165" height="30" as="alternateBounds" />
          </mxGeometry>
        </mxCell>
        <mxCell id="PTO_yJPM0yT8PVMOKiED-136" value="" style="shape=tableRow;horizontal=0;startSize=0;swimlaneHead=0;swimlaneBody=0;fillColor=none;collapsible=0;dropTarget=0;points=[[0,0.5],[1,0.5]];portConstraint=eastwest;top=0;left=0;right=0;bottom=0;" parent="PTO_yJPM0yT8PVMOKiED-126" vertex="1">
          <mxGeometry y="120" width="195" height="30" as="geometry" />
        </mxCell>
        <mxCell id="PTO_yJPM0yT8PVMOKiED-137" value="" style="shape=partialRectangle;connectable=0;fillColor=none;top=0;left=0;bottom=0;right=0;editable=1;overflow=hidden;whiteSpace=wrap;html=1;" parent="PTO_yJPM0yT8PVMOKiED-136" vertex="1">
          <mxGeometry width="30" height="30" as="geometry">
            <mxRectangle width="30" height="30" as="alternateBounds" />
          </mxGeometry>
        </mxCell>
        <mxCell id="PTO_yJPM0yT8PVMOKiED-138" value="secondary_reply_stars" style="shape=partialRectangle;connectable=0;fillColor=none;top=0;left=0;bottom=0;right=0;align=left;spacingLeft=6;overflow=hidden;whiteSpace=wrap;html=1;" parent="PTO_yJPM0yT8PVMOKiED-136" vertex="1">
          <mxGeometry x="30" width="165" height="30" as="geometry">
            <mxRectangle width="165" height="30" as="alternateBounds" />
          </mxGeometry>
        </mxCell>
        <mxCell id="PTO_yJPM0yT8PVMOKiED-139" value="" style="shape=tableRow;horizontal=0;startSize=0;swimlaneHead=0;swimlaneBody=0;fillColor=none;collapsible=0;dropTarget=0;points=[[0,0.5],[1,0.5]];portConstraint=eastwest;top=0;left=0;right=0;bottom=0;" parent="PTO_yJPM0yT8PVMOKiED-126" vertex="1">
          <mxGeometry y="150" width="195" height="30" as="geometry" />
        </mxCell>
        <mxCell id="PTO_yJPM0yT8PVMOKiED-140" value="" style="shape=partialRectangle;connectable=0;fillColor=none;top=0;left=0;bottom=0;right=0;editable=1;overflow=hidden;whiteSpace=wrap;html=1;" parent="PTO_yJPM0yT8PVMOKiED-139" vertex="1">
          <mxGeometry width="30" height="30" as="geometry">
            <mxRectangle width="30" height="30" as="alternateBounds" />
          </mxGeometry>
        </mxCell>
        <mxCell id="PTO_yJPM0yT8PVMOKiED-141" value="secondary_reply_author_id" style="shape=partialRectangle;connectable=0;fillColor=none;top=0;left=0;bottom=0;right=0;align=left;spacingLeft=6;overflow=hidden;whiteSpace=wrap;html=1;" parent="PTO_yJPM0yT8PVMOKiED-139" vertex="1">
          <mxGeometry x="30" width="165" height="30" as="geometry">
            <mxRectangle width="165" height="30" as="alternateBounds" />
          </mxGeometry>
        </mxCell>
        <mxCell id="PTO_yJPM0yT8PVMOKiED-143" value="followed" style="shape=rhombus;double=1;perimeter=rhombusPerimeter;whiteSpace=wrap;html=1;align=center;" parent="1" vertex="1">
          <mxGeometry x="690" y="-100" width="120" height="60" as="geometry" />
        </mxCell>
        <mxCell id="PTO_yJPM0yT8PVMOKiED-151" value="" style="shape=link;html=1;rounded=0;" parent="1" edge="1">
          <mxGeometry relative="1" as="geometry">
            <mxPoint x="800" y="-71" as="sourcePoint" />
            <mxPoint x="920" y="-71" as="targetPoint" />
          </mxGeometry>
        </mxCell>
        <mxCell id="PTO_yJPM0yT8PVMOKiED-154" value="" style="endArrow=classic;html=1;rounded=0;entryX=1;entryY=0.5;entryDx=0;entryDy=0;" parent="1" target="PTO_yJPM0yT8PVMOKiED-3" edge="1">
          <mxGeometry width="50" height="50" relative="1" as="geometry">
            <mxPoint x="690" y="-70" as="sourcePoint" />
            <mxPoint x="740" y="-120" as="targetPoint" />
          </mxGeometry>
        </mxCell>
        <mxCell id="PTO_yJPM0yT8PVMOKiED-158" value="" style="edgeStyle=segmentEdgeStyle;endArrow=classic;html=1;curved=0;rounded=0;endSize=8;startSize=8;" parent="1" edge="1">
          <mxGeometry width="50" height="50" relative="1" as="geometry">
            <mxPoint x="460" y="155" as="sourcePoint" />
            <mxPoint x="420" y="-60" as="targetPoint" />
            <Array as="points">
              <mxPoint x="390" y="155" />
              <mxPoint x="390" y="-60" />
            </Array>
          </mxGeometry>
        </mxCell>
        <mxCell id="PTO_yJPM0yT8PVMOKiED-161" value="" style="edgeStyle=segmentEdgeStyle;endArrow=classic;html=1;curved=0;rounded=0;endSize=8;startSize=8;entryX=1;entryY=0.5;entryDx=0;entryDy=0;exitX=1;exitY=0.5;exitDx=0;exitDy=0;" parent="1" source="PTO_yJPM0yT8PVMOKiED-212" target="PTO_yJPM0yT8PVMOKiED-44" edge="1">
          <mxGeometry width="50" height="50" relative="1" as="geometry">
            <mxPoint x="1187.5" y="335.0000000000002" as="sourcePoint" />
            <mxPoint x="1238" y="256" as="targetPoint" />
            <Array as="points">
              <mxPoint x="1240" y="335" />
              <mxPoint x="1240" y="120" />
            </Array>
          </mxGeometry>
        </mxCell>
        <mxCell id="PTO_yJPM0yT8PVMOKiED-168" value="" style="endArrow=none;html=1;rounded=0;entryX=0.083;entryY=0.5;entryDx=0;entryDy=0;exitX=1;exitY=0.5;exitDx=0;exitDy=0;entryPerimeter=0;" parent="1" source="PTO_yJPM0yT8PVMOKiED-56" target="PTO_yJPM0yT8PVMOKiED-208" edge="1">
          <mxGeometry width="50" height="50" relative="1" as="geometry">
            <mxPoint x="860" y="445" as="sourcePoint" />
            <mxPoint x="930" y="445" as="targetPoint" />
          </mxGeometry>
        </mxCell>
        <mxCell id="PTO_yJPM0yT8PVMOKiED-169" value="" style="endArrow=none;html=1;rounded=0;entryX=0;entryY=0.5;entryDx=0;entryDy=0;exitX=1;exitY=0.5;exitDx=0;exitDy=0;" parent="1" source="PTO_yJPM0yT8PVMOKiED-208" target="PTO_yJPM0yT8PVMOKiED-200" edge="1">
          <mxGeometry width="50" height="50" relative="1" as="geometry">
            <mxPoint x="1050" y="445" as="sourcePoint" />
            <mxPoint x="1102" y="445" as="targetPoint" />
          </mxGeometry>
        </mxCell>
        <mxCell id="PTO_yJPM0yT8PVMOKiED-170" value="" style="endArrow=classic;html=1;rounded=0;entryX=1.002;entryY=0.197;entryDx=0;entryDy=0;entryPerimeter=0;exitX=0.5;exitY=0;exitDx=0;exitDy=0;" parent="1" source="PTO_yJPM0yT8PVMOKiED-208" target="PTO_yJPM0yT8PVMOKiED-204" edge="1">
          <mxGeometry width="50" height="50" relative="1" as="geometry">
            <mxPoint x="989.75" y="414" as="sourcePoint" />
            <mxPoint x="970" y="124" as="targetPoint" />
            <Array as="points">
              <mxPoint x="990" y="380" />
              <mxPoint x="1290" y="380" />
              <mxPoint x="1290" y="30" />
              <mxPoint x="990" y="30" />
              <mxPoint x="990" y="120" />
            </Array>
          </mxGeometry>
        </mxCell>
        <mxCell id="PTO_yJPM0yT8PVMOKiED-171" value="" style="endArrow=classic;html=1;rounded=0;entryX=1.005;entryY=0.926;entryDx=0;entryDy=0;entryPerimeter=0;exitX=0;exitY=0.5;exitDx=0;exitDy=0;" parent="1" source="PTO_yJPM0yT8PVMOKiED-212" target="PTO_yJPM0yT8PVMOKiED-204" edge="1">
          <mxGeometry width="50" height="50" relative="1" as="geometry">
            <mxPoint x="1070" y="335" as="sourcePoint" />
            <mxPoint x="967" y="305" as="targetPoint" />
            <Array as="points">
              <mxPoint x="1017" y="335" />
              <mxPoint x="1017" y="278" />
            </Array>
          </mxGeometry>
        </mxCell>
        <mxCell id="PTO_yJPM0yT8PVMOKiED-177" value="" style="rounded=0;whiteSpace=wrap;html=1;fillColor=none;" parent="1" vertex="1">
          <mxGeometry x="-20" y="400" width="190" height="90" as="geometry" />
        </mxCell>
        <mxCell id="PTO_yJPM0yT8PVMOKiED-178" value="" style="rounded=0;whiteSpace=wrap;html=1;fillColor=none;" parent="1" vertex="1">
          <mxGeometry x="230" y="400" width="190" height="90" as="geometry" />
        </mxCell>
        <mxCell id="PTO_yJPM0yT8PVMOKiED-179" value="" style="rounded=0;whiteSpace=wrap;html=1;fillColor=none;" parent="1" vertex="1">
          <mxGeometry x="470" y="400" width="190" height="90" as="geometry" />
        </mxCell>
        <mxCell id="PTO_yJPM0yT8PVMOKiED-180" value="favorited by" style="shape=rhombus;double=1;perimeter=rhombusPerimeter;whiteSpace=wrap;html=1;align=center;" parent="1" vertex="1">
          <mxGeometry x="496" y="290" width="120" height="60" as="geometry" />
        </mxCell>
        <mxCell id="PTO_yJPM0yT8PVMOKiED-184" value="" style="shape=link;html=1;rounded=0;entryX=0;entryY=0.5;entryDx=0;entryDy=0;width=-4.285714285714286;" parent="1" target="PTO_yJPM0yT8PVMOKiED-179" edge="1">
          <mxGeometry relative="1" as="geometry">
            <mxPoint x="500" y="320" as="sourcePoint" />
            <mxPoint x="640" y="310" as="targetPoint" />
            <Array as="points">
              <mxPoint x="430" y="320" />
              <mxPoint x="430" y="445" />
            </Array>
          </mxGeometry>
        </mxCell>
        <mxCell id="PTO_yJPM0yT8PVMOKiED-190" value="liked by" style="shape=rhombus;double=1;perimeter=rhombusPerimeter;whiteSpace=wrap;html=1;align=center;" parent="1" vertex="1">
          <mxGeometry x="220" y="289" width="120" height="60" as="geometry" />
        </mxCell>
        <mxCell id="PTO_yJPM0yT8PVMOKiED-191" value="" style="shape=link;html=1;rounded=0;exitX=0.046;exitY=0.492;exitDx=0;exitDy=0;exitPerimeter=0;" parent="1" source="PTO_yJPM0yT8PVMOKiED-190" edge="1">
          <mxGeometry relative="1" as="geometry">
            <mxPoint x="70" y="444.28999999999996" as="sourcePoint" />
            <mxPoint x="230" y="444.28999999999996" as="targetPoint" />
            <Array as="points">
              <mxPoint x="180" y="319" />
              <mxPoint x="180" y="444" />
            </Array>
          </mxGeometry>
        </mxCell>
        <mxCell id="PTO_yJPM0yT8PVMOKiED-194" value="shared by" style="shape=rhombus;double=1;perimeter=rhombusPerimeter;whiteSpace=wrap;html=1;align=center;" parent="1" vertex="1">
          <mxGeometry x="-19" y="291" width="120" height="60" as="geometry" />
        </mxCell>
        <mxCell id="PTO_yJPM0yT8PVMOKiED-195" value="" style="shape=link;html=1;rounded=0;exitX=0.049;exitY=0.489;exitDx=0;exitDy=0;exitPerimeter=0;" parent="1" source="PTO_yJPM0yT8PVMOKiED-194" edge="1">
          <mxGeometry relative="1" as="geometry">
            <mxPoint x="-20" y="320" as="sourcePoint" />
            <mxPoint x="-20" y="444.47" as="targetPoint" />
            <Array as="points">
              <mxPoint x="-60" y="320" />
              <mxPoint x="-60" y="444" />
            </Array>
          </mxGeometry>
        </mxCell>
        <mxCell id="PTO_yJPM0yT8PVMOKiED-197" value="" style="endArrow=classic;html=1;rounded=0;entryX=-0.006;entryY=0.275;entryDx=0;entryDy=0;entryPerimeter=0;" parent="1" target="PTO_yJPM0yT8PVMOKiED-204" edge="1">
          <mxGeometry width="50" height="50" relative="1" as="geometry">
            <mxPoint x="102" y="321" as="sourcePoint" />
            <mxPoint x="772" y="134" as="targetPoint" />
            <Array as="points">
              <mxPoint x="150" y="321" />
              <mxPoint x="150" y="240" />
              <mxPoint x="722" y="240" />
              <mxPoint x="722" y="137" />
            </Array>
          </mxGeometry>
        </mxCell>
        <mxCell id="PTO_yJPM0yT8PVMOKiED-198" value="" style="endArrow=classic;html=1;rounded=0;exitX=1;exitY=0.5;exitDx=0;exitDy=0;entryX=0.003;entryY=0.207;entryDx=0;entryDy=0;entryPerimeter=0;" parent="1" source="PTO_yJPM0yT8PVMOKiED-190" target="PTO_yJPM0yT8PVMOKiED-204" edge="1">
          <mxGeometry width="50" height="50" relative="1" as="geometry">
            <mxPoint x="170" y="330" as="sourcePoint" />
            <mxPoint x="774" y="118" as="targetPoint" />
            <Array as="points">
              <mxPoint x="400" y="320" />
              <mxPoint x="400" y="220" />
              <mxPoint x="700" y="220" />
              <mxPoint x="700" y="122" />
            </Array>
          </mxGeometry>
        </mxCell>
        <mxCell id="PTO_yJPM0yT8PVMOKiED-199" value="" style="endArrow=classic;html=1;rounded=0;exitX=1;exitY=0.5;exitDx=0;exitDy=0;entryX=0.001;entryY=0.136;entryDx=0;entryDy=0;entryPerimeter=0;" parent="1" source="PTO_yJPM0yT8PVMOKiED-180" target="PTO_yJPM0yT8PVMOKiED-204" edge="1">
          <mxGeometry width="50" height="50" relative="1" as="geometry">
            <mxPoint x="619" y="320" as="sourcePoint" />
            <mxPoint x="781.02" y="114.73999999999978" as="targetPoint" />
            <Array as="points">
              <mxPoint x="673" y="320" />
              <mxPoint x="673" y="106" />
            </Array>
          </mxGeometry>
        </mxCell>
        <mxCell id="PTO_yJPM0yT8PVMOKiED-200" value="" style="rounded=0;whiteSpace=wrap;html=1;fillColor=none;" parent="1" vertex="1">
          <mxGeometry x="1102.62" y="395" width="190.25" height="100" as="geometry" />
        </mxCell>
        <mxCell id="PTO_yJPM0yT8PVMOKiED-204" value="" style="rounded=0;whiteSpace=wrap;html=1;fillColor=none;" parent="1" vertex="1">
          <mxGeometry x="776" y="76.25" width="188" height="217.5" as="geometry" />
        </mxCell>
        <mxCell id="PTO_yJPM0yT8PVMOKiED-205" value="posted by" style="shape=rhombus;double=1;perimeter=rhombusPerimeter;whiteSpace=wrap;html=1;align=center;" parent="1" vertex="1">
          <mxGeometry x="460" y="125" width="120" height="60" as="geometry" />
        </mxCell>
        <mxCell id="PTO_yJPM0yT8PVMOKiED-206" value="" style="shape=link;html=1;rounded=0;exitX=1;exitY=0.5;exitDx=0;exitDy=0;entryX=-0.004;entryY=0.355;entryDx=0;entryDy=0;entryPerimeter=0;" parent="1" source="PTO_yJPM0yT8PVMOKiED-205" target="PTO_yJPM0yT8PVMOKiED-204" edge="1">
          <mxGeometry relative="1" as="geometry">
            <mxPoint x="580" y="155" as="sourcePoint" />
            <mxPoint x="770" y="155" as="targetPoint" />
          </mxGeometry>
        </mxCell>
        <mxCell id="PTO_yJPM0yT8PVMOKiED-208" value="post categories" style="shape=rhombus;double=1;perimeter=rhombusPerimeter;whiteSpace=wrap;html=1;align=center;" parent="1" vertex="1">
          <mxGeometry x="930" y="415" width="120" height="60" as="geometry" />
        </mxCell>
        <mxCell id="PTO_yJPM0yT8PVMOKiED-209" value="" style="endArrow=none;html=1;rounded=0;exitX=0.5;exitY=0;exitDx=0;exitDy=0;entryX=0;entryY=0.133;entryDx=0;entryDy=0;entryPerimeter=0;" parent="1" source="PTO_yJPM0yT8PVMOKiED-194" target="PTO_yJPM0yT8PVMOKiED-2" edge="1">
          <mxGeometry width="50" height="50" relative="1" as="geometry">
            <mxPoint x="590" y="310" as="sourcePoint" />
            <mxPoint x="640" y="260" as="targetPoint" />
            <Array as="points">
              <mxPoint x="40" y="-90" />
            </Array>
          </mxGeometry>
        </mxCell>
        <mxCell id="PTO_yJPM0yT8PVMOKiED-210" value="" style="endArrow=none;html=1;rounded=0;exitX=0.5;exitY=0;exitDx=0;exitDy=0;" parent="1" source="PTO_yJPM0yT8PVMOKiED-190" edge="1">
          <mxGeometry width="50" height="50" relative="1" as="geometry">
            <mxPoint x="590" y="310" as="sourcePoint" />
            <mxPoint x="420" y="-80" as="targetPoint" />
            <Array as="points">
              <mxPoint x="280" y="-80" />
            </Array>
          </mxGeometry>
        </mxCell>
        <mxCell id="PTO_yJPM0yT8PVMOKiED-211" value="" style="endArrow=none;html=1;rounded=0;exitX=0.5;exitY=0;exitDx=0;exitDy=0;entryX=0;entryY=0.5;entryDx=0;entryDy=0;" parent="1" source="PTO_yJPM0yT8PVMOKiED-180" target="PTO_yJPM0yT8PVMOKiED-3" edge="1">
          <mxGeometry width="50" height="50" relative="1" as="geometry">
            <mxPoint x="590" y="310" as="sourcePoint" />
            <mxPoint x="640" y="260" as="targetPoint" />
            <Array as="points">
              <mxPoint x="360" y="290" />
              <mxPoint x="360" y="-70" />
            </Array>
          </mxGeometry>
        </mxCell>
        <mxCell id="PTO_yJPM0yT8PVMOKiED-212" value="posting city" style="shape=rhombus;double=1;perimeter=rhombusPerimeter;whiteSpace=wrap;html=1;align=center;" parent="1" vertex="1">
          <mxGeometry x="1068.5" y="305" width="120" height="60" as="geometry" />
        </mxCell>
        <mxCell id="PTO_yJPM0yT8PVMOKiED-213" value="author reply post" style="shape=rhombus;double=1;perimeter=rhombusPerimeter;whiteSpace=wrap;html=1;align=center;" parent="1" vertex="1">
          <mxGeometry x="619" y="550" width="120" height="60" as="geometry" />
        </mxCell>
        <mxCell id="PTO_yJPM0yT8PVMOKiED-214" value="" style="shape=link;html=1;rounded=0;entryX=0.5;entryY=0;entryDx=0;entryDy=0;exitX=0.5;exitY=1;exitDx=0;exitDy=0;" parent="1" source="PTO_yJPM0yT8PVMOKiED-213" target="PTO_yJPM0yT8PVMOKiED-218" edge="1">
          <mxGeometry relative="1" as="geometry">
            <mxPoint x="490" y="420" as="sourcePoint" />
            <mxPoint x="650" y="420" as="targetPoint" />
          </mxGeometry>
        </mxCell>
        <mxCell id="PTO_yJPM0yT8PVMOKiED-216" value="" style="endArrow=classic;html=1;rounded=0;exitX=1;exitY=0.5;exitDx=0;exitDy=0;entryX=1;entryY=0.25;entryDx=0;entryDy=0;" parent="1" source="PTO_yJPM0yT8PVMOKiED-213" target="PTO_yJPM0yT8PVMOKiED-204" edge="1">
          <mxGeometry width="50" height="50" relative="1" as="geometry">
            <mxPoint x="550" y="450" as="sourcePoint" />
            <mxPoint x="600" y="400" as="targetPoint" />
            <Array as="points">
              <mxPoint x="1340" y="580" />
              <mxPoint x="1340" y="199" />
              <mxPoint x="1000" y="199" />
              <mxPoint x="1000" y="131" />
            </Array>
          </mxGeometry>
        </mxCell>
        <mxCell id="PTO_yJPM0yT8PVMOKiED-217" value="" style="endArrow=none;html=1;rounded=0;entryX=0;entryY=0.5;entryDx=0;entryDy=0;exitX=0;exitY=0.5;exitDx=0;exitDy=0;" parent="1" source="PTO_yJPM0yT8PVMOKiED-6" target="PTO_yJPM0yT8PVMOKiED-213" edge="1">
          <mxGeometry width="50" height="50" relative="1" as="geometry">
            <mxPoint x="550" y="450" as="sourcePoint" />
            <mxPoint x="600" y="400" as="targetPoint" />
            <Array as="points">
              <mxPoint x="-100" y="-40" />
              <mxPoint x="-100" y="580" />
            </Array>
          </mxGeometry>
        </mxCell>
        <mxCell id="PTO_yJPM0yT8PVMOKiED-218" value="" style="rounded=0;whiteSpace=wrap;html=1;fillColor=none;" parent="1" vertex="1">
          <mxGeometry x="584" y="655" width="190" height="190" as="geometry" />
        </mxCell>
        <mxCell id="PTO_yJPM0yT8PVMOKiED-219" value="" style="rounded=0;whiteSpace=wrap;html=1;fillColor=none;" parent="1" vertex="1">
          <mxGeometry x="104" y="654" width="209" height="195" as="geometry" />
        </mxCell>
        <mxCell id="PTO_yJPM0yT8PVMOKiED-220" value="Relationship" style="shape=rhombus;double=1;perimeter=rhombusPerimeter;whiteSpace=wrap;html=1;align=center;" parent="1" vertex="1">
          <mxGeometry x="390" y="720" width="120" height="60" as="geometry" />
        </mxCell>
        <mxCell id="PTO_yJPM0yT8PVMOKiED-221" value="" style="endArrow=classic;html=1;rounded=0;exitX=1;exitY=0.5;exitDx=0;exitDy=0;entryX=0;entryY=0.25;entryDx=0;entryDy=0;" parent="1" source="PTO_yJPM0yT8PVMOKiED-220" target="PTO_yJPM0yT8PVMOKiED-218" edge="1">
          <mxGeometry width="50" height="50" relative="1" as="geometry">
            <mxPoint x="860" y="520" as="sourcePoint" />
            <mxPoint x="910" y="470" as="targetPoint" />
            <Array as="points">
              <mxPoint x="550" y="750" />
              <mxPoint x="550" y="703" />
            </Array>
          </mxGeometry>
        </mxCell>
        <mxCell id="PTO_yJPM0yT8PVMOKiED-222" value="" style="shape=link;html=1;rounded=0;exitX=1.003;exitY=0.49;exitDx=0;exitDy=0;exitPerimeter=0;entryX=0.028;entryY=0.496;entryDx=0;entryDy=0;entryPerimeter=0;" parent="1" source="PTO_yJPM0yT8PVMOKiED-219" target="PTO_yJPM0yT8PVMOKiED-220" edge="1">
          <mxGeometry relative="1" as="geometry">
            <mxPoint x="810" y="490" as="sourcePoint" />
            <mxPoint x="390" y="750" as="targetPoint" />
          </mxGeometry>
        </mxCell>
        <mxCell id="PTO_yJPM0yT8PVMOKiED-224" value="" style="endArrow=none;html=1;rounded=0;exitX=0.5;exitY=0;exitDx=0;exitDy=0;entryX=-0.001;entryY=0.978;entryDx=0;entryDy=0;entryPerimeter=0;" parent="1" source="PTO_yJPM0yT8PVMOKiED-220" target="PTO_yJPM0yT8PVMOKiED-6" edge="1">
          <mxGeometry width="50" height="50" relative="1" as="geometry">
            <mxPoint x="560" y="390" as="sourcePoint" />
            <mxPoint x="610" y="340" as="targetPoint" />
            <Array as="points">
              <mxPoint x="450" y="640" />
              <mxPoint x="-140" y="640" />
              <mxPoint x="-140" y="-25" />
            </Array>
          </mxGeometry>
        </mxCell>
      </root>
    </mxGraphModel>
  </diagram>
</mxfile>
